<svg xmlns="http://www.w3.org/2000/svg" viewBox="0 0 1200 480" width="1200" height="480" font-family="'Segoe UI', system-ui, -apple-system, sans-serif">
  <defs>
    <linearGradient id="bg" x1="0" y1="0" x2="1" y2="1">
      <stop offset="0" stop-color="#0f172a"/>
      <stop offset="0.5" stop-color="#1e1b4b"/>
      <stop offset="1" stop-color="#312e81"/>
    </linearGradient>
    <linearGradient id="accent" x1="0" y1="0" x2="1" y2="0">
      <stop offset="0" stop-color="#22d3ee"/>
      <stop offset="0.5" stop-color="#818cf8"/>
      <stop offset="1" stop-color="#e879f9"/>
    </linearGradient>
    <linearGradient id="doc" x1="0" y1="0" x2="0" y2="1">
      <stop offset="0" stop-color="#f8fafc"/>
      <stop offset="1" stop-color="#e2e8f0"/>
    </linearGradient>
    <filter id="glow" x="-50%" y="-50%" width="200%" height="200%">
      <feGaussianBlur stdDeviation="8" result="b"/>
      <feMerge><feMergeNode in="b"/><feMergeNode in="SourceGraphic"/></feMerge>
    </filter>
    <radialGradient id="orb" cx="0.5" cy="0.5" r="0.5">
      <stop offset="0" stop-color="#22d3ee" stop-opacity="0.9"/>
      <stop offset="1" stop-color="#6366f1" stop-opacity="0"/>
    </radialGradient>
  </defs>

  <!-- background -->
  <rect width="1200" height="480" fill="url(#bg)"/>

  <!-- faint grid -->
  <g stroke="#ffffff" stroke-opacity="0.05" stroke-width="1">
    <path d="M0 60 H1200 M0 120 H1200 M0 180 H1200 M0 240 H1200 M0 300 H1200 M0 360 H1200 M0 420 H1200"/>
    <path d="M100 0 V480 M200 0 V480 M300 0 V480 M400 0 V480 M500 0 V480 M600 0 V480 M700 0 V480 M800 0 V480 M900 0 V480 M1000 0 V480 M1100 0 V480"/>
  </g>

  <!-- decorative orbs -->
  <circle cx="1040" cy="120" r="180" fill="url(#orb)" opacity="0.7"/>
  <circle cx="120" cy="400" r="140" fill="url(#orb)" opacity="0.4"/>

  <!-- left: text -->
  <g>
    <rect x="80" y="92" width="240" height="34" rx="17" fill="#ffffff" fill-opacity="0.08" stroke="url(#accent)" stroke-width="1.5"/>
    <text x="200" y="115" fill="#a5b4fc" font-size="15" font-weight="600" letter-spacing="1.5" text-anchor="middle">CLAUDE CODE × NEO MCP</text>

    <text x="80" y="200" fill="#ffffff" font-size="58" font-weight="800" letter-spacing="-1">Repo → Risk Report</text>
    <text x="80" y="262" fill="url(#accent)" font-size="44" font-weight="800" letter-spacing="-1">in one go.</text>

    <text x="80" y="320" fill="#cbd5e1" font-size="22" font-weight="400">One ask in Claude Code. Neo does the audit —</text>
    <text x="80" y="350" fill="#cbd5e1" font-size="22" font-weight="400">every finding tied to a real file.</text>

    <!-- stat chips -->
    <g font-weight="700">
      <rect x="80" y="384" width="150" height="56" rx="12" fill="#ffffff" fill-opacity="0.06" stroke="#334155"/>
      <text x="155" y="412" fill="#22d3ee" font-size="26" text-anchor="middle">724</text>
      <text x="155" y="430" fill="#94a3b8" font-size="12" text-anchor="middle" font-weight="500">LINES</text>

      <rect x="244" y="384" width="150" height="56" rx="12" fill="#ffffff" fill-opacity="0.06" stroke="#334155"/>
      <text x="319" y="412" fill="#818cf8" font-size="26" text-anchor="middle">12</text>
      <text x="319" y="430" fill="#94a3b8" font-size="12" text-anchor="middle" font-weight="500">SECTIONS</text>

      <rect x="408" y="384" width="150" height="56" rx="12" fill="#ffffff" fill-opacity="0.06" stroke="#334155"/>
      <text x="483" y="412" fill="#e879f9" font-size="26" text-anchor="middle">1</text>
      <text x="483" y="430" fill="#94a3b8" font-size="12" text-anchor="middle" font-weight="500">ASK</text>
    </g>
  </g>

  <!-- right: report illustration -->
  <g transform="translate(820,110)" filter="url(#glow)">
    <!-- stacked papers -->
    <rect x="40" y="30" width="240" height="300" rx="14" fill="#1e293b" opacity="0.6" transform="rotate(6 160 180)"/>
    <rect x="20" y="20" width="240" height="300" rx="14" fill="#334155" opacity="0.8" transform="rotate(3 140 170)"/>
    <rect x="0" y="10" width="240" height="300" rx="14" fill="url(#doc)"/>

    <!-- doc header bar -->
    <rect x="0" y="10" width="240" height="56" rx="14" fill="url(#accent)"/>
    <rect x="0" y="48" width="240" height="18" fill="url(#accent)"/>
    <text x="20" y="46" fill="#0f172a" font-size="17" font-weight="800">AI GOVERNANCE</text>

    <!-- magnifier icon -->
    <circle cx="205" cy="38" r="13" fill="none" stroke="#0f172a" stroke-width="3"/>
    <line x1="215" y1="48" x2="224" y2="57" stroke="#0f172a" stroke-width="4" stroke-linecap="round"/>

    <!-- text lines -->
    <g fill="#cbd5e1">
      <rect x="22" y="86" width="120" height="9" rx="4" fill="#94a3b8"/>
      <rect x="22" y="104" width="196" height="7" rx="3"/>
      <rect x="22" y="118" width="180" height="7" rx="3"/>
      <rect x="22" y="132" width="196" height="7" rx="3"/>
    </g>

    <!-- severity rows -->
    <g font-family="monospace" font-size="11" font-weight="700">
      <rect x="22" y="156" width="196" height="26" rx="6" fill="#fee2e2"/>
      <circle cx="36" cy="169" r="6" fill="#ef4444"/>
      <text x="50" y="173" fill="#991b1b">CRITICAL · serializer default</text>

      <rect x="22" y="188" width="196" height="26" rx="6" fill="#ffedd5"/>
      <circle cx="36" cy="201" r="6" fill="#f97316"/>
      <text x="50" y="205" fill="#9a3412">HIGH · no SECURITY.md</text>

      <rect x="22" y="220" width="196" height="26" rx="6" fill="#fef9c3"/>
      <circle cx="36" cy="233" r="6" fill="#eab308"/>
      <text x="50" y="237" fill="#854d0e">MED · no SCA scanner</text>
    </g>

    <!-- scorecard -->
    <g>
      <text x="22" y="272" fill="#475569" font-size="11" font-weight="700">MATURITY</text>
      <g font-size="11" font-weight="800" text-anchor="middle">
        <rect x="22" y="280" width="32" height="22" rx="5" fill="#312e81"/><text x="38" y="295" fill="#fff">2</text>
        <rect x="58" y="280" width="32" height="22" rx="5" fill="#4338ca"/><text x="74" y="295" fill="#fff">2</text>
        <rect x="94" y="280" width="32" height="22" rx="5" fill="#6366f1"/><text x="110" y="295" fill="#fff">3</text>
        <rect x="130" y="280" width="32" height="22" rx="5" fill="#818cf8"/><text x="146" y="295" fill="#fff">3</text>
        <rect x="166" y="280" width="52" height="22" rx="5" fill="url(#accent)"/><text x="192" y="295" fill="#0f172a">2.6/5</text>
      </g>
    </g>
  </g>
</svg>
